# xmcd
#
# Track frame offsets:
#	150
#	19875
#	37162
#	53875
#	72325
#	91862
#	108425
#	129275
#	146675
#	165400
#
# Disc length: 2432 seconds
#
# Revision: 0
# Processed by: cddbd v1.5.2PL0 Copyright (c) Steve Scherf et al.
# Submitted via: EZCDAudioConverter 2.2.2.1
#
DISCID=85097e0a
DTITLE=溫碧霞 - 水的個性
DYEAR=1992
DGENRE=粵語流行曲
TTITLE0=某一個晚上
TTITLE1=飛花
TTITLE2=夢化妝
TTITLE3=痴心
TTITLE4=半生緣
TTITLE5=水的個性
TTITLE6=忘掉我自己
TTITLE7=香檳
TTITLE8=凍結情感
TTITLE9=飛花(音樂)
EXTD=
EXTT0=
EXTT1=
EXTT2=
EXTT3=
EXTT4=
EXTT5=
EXTT6=
EXTT7=
EXTT8=
EXTT9=
PLAYORDER=
